<svg width="113" height="20" viewBox="0 0 113 20" fill="none" xmlns="http://www.w3.org/2000/svg">
<path fill-rule="evenodd" clip-rule="evenodd" d="M92.7454 19.3017V19.581H99.4214V19.3017L99.0582 19.2179C98.7044 19.1061 98.453 18.9385 98.3041 18.7151C98.1551 18.473 98.0806 18.1657 98.0806 17.7933C98.0806 17.1229 98.0713 16.4525 98.0527 15.7821V13.7151V4.16201L98.1644 0.251396L97.8292 0L92.7175 1.20112V1.48045L93.0806 1.56425C93.453 1.65735 93.7137 1.80633 93.8627 2.01117C94.0117 2.19739 94.0862 2.47672 94.0862 2.84916V17.7933C94.0862 18.5009 93.751 18.9665 93.0806 19.1899L92.7454 19.3017ZM3.82682 20C2.74674 20 1.83426 19.6927 1.08939 19.0782C0.363128 18.4637 0 17.5791 0 16.4246C0 15.5493 0.446928 14.7486 1.34078 14.0223C2.23464 13.2775 3.6406 12.7188 5.55866 12.3464C5.85661 12.2905 6.19181 12.2346 6.56425 12.1788C6.93669 12.1043 7.32775 12.0298 7.73743 11.9553V9.7486C7.73743 8.48231 7.57914 7.59776 7.26257 7.09497C6.96462 6.57356 6.48976 6.31285 5.83799 6.31285C5.39106 6.31285 5.03724 6.46182 4.77654 6.75978C4.51583 7.03911 4.34823 7.53259 4.27374 8.24022L4.21788 8.54749C4.18063 9.34823 3.9851 9.93482 3.63128 10.3073C3.27747 10.6797 2.83985 10.8659 2.31844 10.8659C1.83426 10.8659 1.43389 10.7169 1.11732 10.419C0.800745 10.121 0.642458 9.72067 0.642458 9.21788C0.642458 8.45438 0.903166 7.81192 1.42458 7.2905C1.96462 6.76909 2.67225 6.37803 3.54749 6.11732C4.42272 5.85661 5.37244 5.72626 6.39665 5.72626C8.054 5.72626 9.32961 6.13594 10.2235 6.95531C11.1359 7.75605 11.5922 9.0689 11.5922 10.8939V17.067C11.5922 17.905 11.9832 18.324 12.7654 18.324H13.3799L13.6313 18.5475C13.2775 18.9944 12.8864 19.3389 12.4581 19.581C12.0484 19.8231 11.4618 19.9441 10.6983 19.9441C9.87896 19.9441 9.22719 19.7579 8.74302 19.3855C8.27747 18.9944 7.9702 18.4823 7.82123 17.8492C7.26257 18.4451 6.68529 18.9572 6.08939 19.3855C5.5121 19.7952 4.75792 20 3.82682 20ZM5.53073 18.2961C5.90317 18.2961 6.24767 18.2123 6.56425 18.0447C6.89944 17.8585 7.2905 17.5791 7.73743 17.2067V12.514L7.17877 12.6257C6.99255 12.6629 6.7784 12.7002 6.53631 12.7374C5.6797 12.9609 4.99069 13.3426 4.46927 13.8827C3.96648 14.4041 3.71508 15.1117 3.71508 16.0056C3.71508 16.7691 3.89199 17.3464 4.24581 17.7374C4.59963 18.1099 5.02793 18.2961 5.53073 18.2961ZM46.1082 5.72626C47.3186 5.72626 48.3521 5.97765 49.2087 6.48045C50.0653 6.96462 50.7171 7.63501 51.164 8.49162C51.6296 9.32961 51.8623 10.2886 51.8623 11.3687C51.8623 11.5736 51.853 11.7877 51.8344 12.0112C51.8158 12.216 51.7785 12.4022 51.7227 12.5698H43.3987C43.4173 14.581 43.7711 16.0335 44.4601 16.9274C45.1677 17.8026 46.2106 18.2402 47.5886 18.2402C48.5197 18.2402 49.2739 18.0912 49.8512 17.7933C50.4285 17.4953 50.9685 17.0577 51.4713 16.4804L51.7506 16.7318C51.1733 17.7561 50.4005 18.5568 49.4322 19.1341C48.4825 19.7114 47.3372 20 45.9964 20C44.6743 20 43.5011 19.7207 42.4769 19.162C41.4527 18.5847 40.6519 17.7654 40.0746 16.7039C39.4974 15.6425 39.2087 14.3762 39.2087 12.905C39.2087 11.378 39.5439 10.0838 40.2143 9.02234C40.8847 7.94227 41.7413 7.1229 42.7841 6.56425C43.8456 6.00559 44.9536 5.72626 46.1082 5.72626ZM46.0244 6.28492C45.4843 6.28492 45.0188 6.45251 44.6277 6.78771C44.2553 7.10428 43.9573 7.68156 43.7339 8.51955C43.529 9.33892 43.4173 10.5028 43.3987 12.0112H48.1752C48.3614 9.98138 48.2869 8.51955 47.9517 7.6257C47.6165 6.73184 46.9741 6.28492 46.0244 6.28492ZM106.898 5.72626C108.109 5.72626 109.142 5.97765 109.999 6.48045C110.855 6.96462 111.507 7.63501 111.954 8.49162C112.42 9.32961 112.652 10.2886 112.652 11.3687C112.652 11.5736 112.643 11.7877 112.624 12.0112C112.606 12.216 112.569 12.4022 112.513 12.5698H104.189C104.207 14.581 104.561 16.0335 105.25 16.9274C105.958 17.8026 107.001 18.2402 108.379 18.2402C109.31 18.2402 110.064 18.0912 110.641 17.7933C111.218 17.4953 111.758 17.0577 112.261 16.4804L112.541 16.7318C111.963 17.7561 111.19 18.5568 110.222 19.1341C109.272 19.7114 108.127 20 106.786 20C105.464 20 104.291 19.7207 103.267 19.162C102.243 18.5847 101.442 17.7654 100.865 16.7039C100.287 15.6425 99.9987 14.3762 99.9987 12.905C99.9987 11.378 100.334 10.0838 101.004 9.02234C101.675 7.94227 102.531 7.1229 103.574 6.56425C104.636 6.00559 105.744 5.72626 106.898 5.72626ZM106.814 6.28492C106.274 6.28492 105.809 6.45251 105.418 6.78771C105.045 7.10428 104.747 7.68156 104.524 8.51955C104.319 9.33892 104.207 10.5028 104.189 12.0112H108.965C109.151 9.98138 109.077 8.51955 108.742 7.6257C108.406 6.73184 107.764 6.28492 106.814 6.28492ZM52.9751 19.3017V19.581H59.5393V19.3017L59.2879 19.2179C58.6362 19.0317 58.3103 18.5754 58.3103 17.8492V8.49162C58.7758 8.08194 59.2228 7.77467 59.6511 7.56983C60.0794 7.34637 60.5077 7.23464 60.936 7.23464C61.5877 7.23464 62.044 7.39292 62.3047 7.7095C62.584 8.02607 62.7237 8.5568 62.7237 9.30167V17.8212C62.7237 18.1937 62.6492 18.4916 62.5002 18.7151C62.3699 18.9199 62.1278 19.0782 61.774 19.1899L61.3829 19.3017V19.581H67.8634V19.3017L67.612 19.2179C66.9602 19.0317 66.625 18.5754 66.6064 17.8492V10.6145C66.6064 10.2235 66.5877 9.85102 66.5505 9.4972C66.5319 9.14339 66.476 8.8175 66.3829 8.51955C66.8857 8.09125 67.3606 7.77467 67.8075 7.56983C68.273 7.34637 68.7479 7.23464 69.2321 7.23464C69.8466 7.23464 70.2935 7.38361 70.5728 7.68156C70.8522 7.96089 70.9918 8.49162 70.9918 9.27374V17.0728C70.9918 19.5926 73.0212 19.588 75.788 19.5817C75.9286 19.5813 76.0711 19.581 76.2153 19.581H77.3632H81.7701C82.3278 19.581 82.5308 18.9385 82.5308 18.9385C83.0708 19.2737 83.6853 19.5345 84.3744 19.7207C85.082 19.9069 85.7803 20 86.4693 20C87.5308 20 88.4991 19.73 89.3744 19.1899C90.2682 18.6499 90.9758 17.8492 91.4973 16.7877C92.0373 15.7076 92.3073 14.3575 92.3073 12.7374C92.3073 11.1173 92.0652 9.79516 91.5811 8.77095C91.1155 7.72812 90.4731 6.96462 89.6537 6.48045C88.8343 5.97765 87.8939 5.72626 86.8325 5.72626C86.0876 5.72626 85.352 5.83799 84.6258 6.06145C83.8995 6.26629 83.2291 6.58287 82.6146 7.01117V4.18994L82.7263 0.251396L82.3911 0L77.419 1.20112V1.48045L77.8101 1.59218C78.1825 1.66667 78.4246 1.80633 78.5364 2.01117C78.6667 2.21601 78.7319 2.51397 78.7319 2.90503V17.3613C78.7319 18.1248 78.3688 18.5904 77.6425 18.758L77.3632 18.8138C76.9235 18.8895 76.6737 18.8943 76.2153 18.8138L75.908 18.73C75.2376 18.5438 74.9025 18.0876 74.9025 17.3613V9.6648C74.9025 8.3054 74.5859 7.30912 73.9527 6.67598C73.3382 6.04283 72.3699 5.72626 71.0477 5.72626C70.247 5.72626 69.4183 5.9311 68.5617 6.34078C67.7237 6.73184 66.9416 7.27188 66.2153 7.96089C65.936 7.19739 65.5263 6.63873 64.9863 6.28492C64.4462 5.91248 63.7293 5.72626 62.8354 5.72626C61.9788 5.72626 61.1501 5.94041 60.3494 6.36871C59.5673 6.79702 58.8689 7.31844 58.2544 7.93296L58.0309 6.03352L57.7516 5.75419L52.9751 7.3743V7.65363L53.3941 7.76536C53.7665 7.83985 54.0179 7.97952 54.1483 8.18436C54.2786 8.37058 54.3438 8.66853 54.3438 9.07821V17.8212C54.3252 18.1937 54.2414 18.4916 54.0924 18.7151C53.962 18.9385 53.72 19.0968 53.3661 19.1899L52.9751 19.3017ZM85.0727 19.0503C85.6686 19.0503 86.19 18.8641 86.6369 18.4916C87.0838 18.1192 87.4377 17.486 87.6984 16.5922C87.9591 15.6797 88.0894 14.432 88.0894 12.8492C88.0894 11.2663 87.9684 10.0466 87.7263 9.18994C87.4842 8.33333 87.1397 7.73743 86.6928 7.40223C86.2645 7.06704 85.7431 6.89944 85.1285 6.89944C84.2533 6.89944 83.4433 7.14153 82.6984 7.6257V18.352C83.0522 18.5754 83.4153 18.7523 83.7878 18.8827C84.1602 18.9944 84.5885 19.0503 85.0727 19.0503ZM15.2811 10.1181C15.2811 11.1423 15.6069 12.0082 16.2587 12.7159C16.5735 13.0576 16.9448 13.356 17.3725 13.6109C16.897 13.8555 16.4747 14.1108 16.075 14.3639C14.2226 15.5371 14.2689 17.3766 15.1135 18.3025C15.8488 19.1086 16.5619 19.358 17.1296 19.5565L17.1297 19.5565L17.13 19.5566C17.2141 19.5861 17.2951 19.6144 17.3725 19.6432C18.0987 19.8667 18.9496 19.9784 19.8621 19.9784C21.7987 19.9784 23.2978 19.5687 24.3593 18.7494C25.4393 17.93 25.9794 16.8406 25.9794 15.4812C25.9794 14.4756 25.6907 13.619 25.1135 12.9114C25.0944 12.8874 25.075 12.8637 25.0551 12.8401C25.5689 12.7871 26.0921 12.7578 26.6196 12.7578C27.2308 12.7578 27.8241 12.7327 28.3974 12.6858L28.4248 12.7159C29.0766 13.4235 29.9704 13.9449 31.1064 14.2801L32.2796 14.6432C33.341 14.9598 34.0673 15.3136 34.4583 15.7047C34.8494 16.0958 35.0449 16.5985 35.0449 17.2131C35.0449 17.8835 34.7656 18.4235 34.207 18.8332C33.6669 19.2242 32.95 19.4198 32.0561 19.4198C31.2926 19.4198 30.6595 19.2429 30.1567 18.889C29.6725 18.5166 29.2256 17.9579 28.8159 17.2131L27.8662 15.5371H27.5868L27.5589 18.8611C28.1734 19.1777 28.8438 19.4384 29.5701 19.6432C30.2963 19.8667 31.1157 19.9784 32.0282 19.9784C33.9649 19.9784 35.4639 19.5687 36.5254 18.7494C37.6055 17.93 38.1455 16.8406 38.1455 15.4812C38.1455 14.4756 37.8569 13.619 37.2796 12.9114C36.7023 12.1851 36.0056 11.701 34.6648 11.2913C35.6424 10.8333 35.9757 10.6219 36.5254 10.1181C38.189 8.59318 37.2943 7.25553 36.9793 6.94069L36.9723 6.93374C36.6651 6.62648 35.7526 6.10506 35.1008 5.95609C34.4677 5.78849 33.788 5.70469 33.0617 5.70469C31.2554 5.70469 29.868 6.133 28.8997 6.98961C27.9313 7.84622 27.4472 8.88905 27.4472 10.1181C27.4472 10.7723 27.5801 11.3619 27.846 11.887C27.3041 11.942 26.7323 11.9726 26.1308 11.9726C25.4018 11.9726 24.7273 11.9914 24.1015 12.0267C23.5952 11.7058 22.9734 11.4327 22.2364 11.2075L20.9794 10.8444C20.0483 10.5278 19.3406 10.1833 18.8565 9.81083C18.3909 9.43839 18.1581 8.9356 18.1581 8.30245C18.1581 7.65069 18.4375 7.14789 18.9961 6.79408C19.5548 6.44026 20.1507 6.26335 20.7838 6.26335C21.4729 6.26335 21.985 6.3937 22.3202 6.65441C22.674 6.8965 23.0278 7.3248 23.3816 7.93933L24.3593 9.67117H24.6386L24.8062 6.65441C24.2103 6.33784 23.5865 6.10506 22.9347 5.95609C22.3015 5.78849 21.6218 5.70469 20.8956 5.70469C19.0892 5.70469 17.7019 6.133 16.7336 6.98961C15.7652 7.84622 15.2811 8.88905 15.2811 10.1181ZM31.0226 9.81083C31.398 10.0996 32.2051 10.4774 32.8491 10.7326C34.3503 10.0376 34.7381 9.56728 34.9769 9.27766C35.0008 9.24876 35.0231 9.22166 35.0449 9.19631C35.2854 8.91698 35.5028 8.63765 35.5028 7.93933C35.5028 7.26364 35.0361 6.94535 34.6853 6.70613L34.6505 6.68234C34.3153 6.42164 33.639 6.26335 32.95 6.26335C32.3168 6.26335 31.7209 6.44026 31.1623 6.79408C30.6036 7.14789 30.3243 7.65069 30.3243 8.30245C30.3243 8.9356 30.557 9.43839 31.0226 9.81083ZM20.1135 14.6432L19.3221 14.3983C18.1066 14.9425 17.6112 15.2019 17.0526 15.7606C16.494 16.3192 16.4353 16.8779 16.7733 17.4924C17.1113 18.1069 17.4717 18.4142 18.1581 18.7494C18.8446 19.0846 19.6107 19.1404 19.6107 19.1404C19.6107 19.1404 21.2426 19.341 22.0408 18.8332C22.839 18.3253 22.8788 17.8835 22.8788 17.2131C22.8788 16.5985 22.6833 16.0958 22.2922 15.7047C21.9012 15.3136 21.1749 14.9598 20.1135 14.6432Z" fill="#2472E8"/>
</svg>
