<svg width="151" height="30" viewBox="0 0 151 30" fill="none" xmlns="http://www.w3.org/2000/svg">
<path fill-rule="evenodd" clip-rule="evenodd" d="M19.9363 5.86987L19.1378 6.0458L18.3849 2.62881C18.2279 1.91645 17.9989 1.41698 17.6977 1.13038C17.3965 0.843794 17.0228 0.749656 16.5766 0.84797C16.1148 0.949733 15.7361 1.20554 15.4406 1.61539C15.1529 2.02351 14.9917 2.50229 14.9568 3.05172L15.7795 6.78574L14.981 6.96167L14.2282 3.54469C14.0695 2.8245 13.8443 2.32416 13.5527 2.04367C13.2593 1.75535 12.8856 1.66122 12.4316 1.76126C11.9776 1.86129 11.602 2.11232 11.3048 2.51434C11.0075 2.91636 10.8424 3.396 10.8092 3.95326L11.6345 7.69903L10.836 7.87496L9.4881 1.75726L10.2161 1.59685L10.5214 2.98244C10.6745 2.448 10.9222 2.00764 11.2646 1.66134C11.6147 1.31332 12.0364 1.08498 12.5295 0.976319C13.0384 0.864206 13.4812 0.918475 13.8582 1.13912C14.2351 1.35977 14.5106 1.69718 14.6845 2.15135C14.8525 1.5726 15.1029 1.10702 15.4356 0.754624C15.7762 0.400501 16.197 0.168247 16.698 0.057859C17.0425 -0.0180325 17.3459 -0.0192247 17.6083 0.0542816C17.8786 0.126063 18.1101 0.263852 18.3027 0.46765C18.5015 0.661895 18.6684 0.916509 18.8035 1.23149C18.9446 1.53692 19.0592 1.88926 19.1472 2.28849L19.9363 5.86987ZM7.88725 10.8338C8.26646 10.6533 8.60307 10.3935 8.89707 10.0543C9.19633 9.70899 9.40573 9.33889 9.52528 8.94394C9.64402 8.53768 9.68059 8.13445 9.63497 7.73425C9.58854 7.32274 9.46983 6.93344 9.27883 6.56635C9.08177 6.194 8.8197 5.86608 8.4926 5.58257C8.15339 5.28857 7.78853 5.07311 7.39803 4.93619C7.00147 4.79402 6.59925 4.73182 6.19137 4.74957C5.77744 4.76208 5.3835 4.85555 5.00954 5.02999C4.62952 5.19918 4.29251 5.45338 3.99851 5.7926C3.7045 6.13181 3.49813 6.50454 3.37938 6.91079C3.25983 7.30574 3.22327 7.70897 3.2697 8.12048C3.31006 8.52674 3.42878 8.91604 3.62583 9.28839C3.81683 9.65548 4.08194 9.98603 4.42115 10.28C4.74825 10.5635 5.11007 10.7764 5.50664 10.9185C5.89714 11.0555 6.29673 11.1207 6.70542 11.1142C7.11329 11.0965 7.50724 11.003 7.88725 10.8338ZM6.13362 10.2686C5.71161 10.168 5.32495 9.96548 4.97362 9.66098C4.61624 9.35122 4.36345 8.99422 4.21526 8.58997C4.06101 8.18048 4.00631 7.7724 4.05115 7.36574C4.10124 6.95302 4.26279 6.58917 4.53579 6.27419C4.8088 5.95921 5.14298 5.74499 5.53834 5.63152C5.9337 5.51806 6.34501 5.50859 6.77226 5.6031C7.19951 5.69762 7.5888 5.89712 7.94013 6.20163C8.2854 6.50089 8.53819 6.85789 8.69849 7.27263C8.85274 7.68213 8.90179 8.09061 8.84564 8.49808C8.78949 8.90555 8.62492 9.26677 8.35191 9.58175C8.07891 9.89673 7.74775 10.1136 7.35845 10.2323C6.96309 10.3458 6.55481 10.3579 6.13362 10.2686ZM125.698 29.1412V29.4847H133.909V29.1412L133.462 29.0381C133.027 28.9007 132.718 28.6946 132.535 28.4198C132.351 28.122 132.26 27.7441 132.26 27.2861C132.26 26.4616 132.248 25.6371 132.225 24.8126V22.2704V10.5214L132.363 5.71182L131.951 5.40264L125.664 6.87986V7.2234L126.11 7.32646C126.568 7.44097 126.889 7.62419 127.072 7.87612C127.256 8.10515 127.347 8.44869 127.347 8.90674V27.2861C127.347 28.1564 126.935 28.7289 126.11 29.0038L125.698 29.1412ZM16.3399 30C15.0115 30 13.8893 29.6221 12.9732 28.8664C12.08 28.1106 11.6334 27.0227 11.6334 25.6027C11.6334 24.5263 12.183 23.5415 13.2824 22.6483C14.3817 21.7322 16.1108 21.0451 18.4698 20.5871C18.8363 20.5184 19.2485 20.4496 19.7066 20.3809C20.1646 20.2893 20.6456 20.1977 21.1494 20.1061V17.3922C21.1494 15.8348 20.9547 14.7469 20.5654 14.1285C20.199 13.4873 19.6149 13.1666 18.8133 13.1666C18.2637 13.1666 17.8285 13.3498 17.5079 13.7163C17.1873 14.0598 16.9811 14.6667 16.8895 15.537L16.8208 15.9149C16.775 16.8997 16.5345 17.6212 16.0994 18.0792C15.6642 18.5373 15.126 18.7663 14.4848 18.7663C13.8893 18.7663 13.3969 18.5831 13.0075 18.2166C12.6182 17.8502 12.4235 17.3578 12.4235 16.7394C12.4235 15.8004 12.7442 15.0103 13.3854 14.369C14.0496 13.7277 14.9199 13.2468 15.9963 12.9261C17.0728 12.6055 18.2408 12.4452 19.5004 12.4452C21.5388 12.4452 23.1076 12.949 24.2069 13.9568C25.3291 14.9416 25.8903 16.5562 25.8903 18.8007V26.3929C25.8903 27.4235 26.3712 27.9388 27.3331 27.9388H28.0889L28.3981 28.2136C27.9629 28.7633 27.482 29.187 26.9552 29.4847C26.4514 29.7825 25.7299 29.9313 24.7909 29.9313C23.7832 29.9313 22.9816 29.7023 22.3862 29.2443C21.8136 28.7633 21.4357 28.1335 21.2525 27.3548C20.5654 28.0877 19.8554 28.7175 19.1225 29.2443C18.4126 29.7481 17.485 30 16.3399 30ZM18.4355 27.9044C18.8935 27.9044 19.3172 27.8014 19.7066 27.5953C20.1188 27.3662 20.5998 27.0227 21.1494 26.5646V20.7932L20.4623 20.9306C20.2333 20.9764 19.9699 21.0222 19.6722 21.068C18.6187 21.3428 17.7713 21.8124 17.13 22.4765C16.5116 23.1178 16.2025 23.9881 16.2025 25.0874C16.2025 26.0264 16.42 26.7364 16.8552 27.2174C17.2903 27.6754 17.8171 27.9044 18.4355 27.9044ZM68.3404 12.4452C69.8291 12.4452 71.1002 12.7544 72.1537 13.3727C73.2072 13.9682 74.0088 14.7927 74.5585 15.8462C75.131 16.8768 75.4173 18.0563 75.4173 19.3847C75.4173 19.6366 75.4059 19.9 75.383 20.1748C75.3601 20.4267 75.3143 20.6558 75.2455 20.8619H65.0081C65.031 23.3354 65.4661 25.1218 66.3135 26.2211C67.1838 27.2975 68.4664 27.8357 70.1612 27.8357C71.3063 27.8357 72.2339 27.6525 72.9438 27.2861C73.6538 26.9196 74.318 26.3814 74.9364 25.6714L75.2799 25.9806C74.5699 27.2403 73.6195 28.2251 72.4285 28.9351C71.2605 29.645 69.852 30 68.203 30C66.5769 30 65.134 29.6565 63.8744 28.9694C62.6148 28.2594 61.63 27.2517 60.92 25.9463C60.21 24.6408 59.855 23.0834 59.855 21.2741C59.855 19.3961 60.2672 17.8044 61.0917 16.4989C61.9162 15.1706 62.9697 14.1629 64.2523 13.4758C65.5577 12.7887 66.9204 12.4452 68.3404 12.4452ZM68.2374 13.1323C67.5732 13.1323 67.0006 13.3384 66.5197 13.7506C66.0616 14.14 65.6952 14.85 65.4203 15.8806C65.1684 16.8883 65.031 18.3197 65.0081 20.1748H70.8826C71.1116 17.6784 71.02 15.8806 70.6078 14.7813C70.1955 13.6819 69.4054 13.1323 68.2374 13.1323ZM143.104 12.4452C144.593 12.4452 145.864 12.7544 146.917 13.3727C147.971 13.9682 148.773 14.7927 149.322 15.8462C149.895 16.8768 150.181 18.0563 150.181 19.3847C150.181 19.6366 150.17 19.9 150.147 20.1748C150.124 20.4267 150.078 20.6558 150.009 20.8619H139.772C139.795 23.3354 140.23 25.1218 141.077 26.2211C141.948 27.2975 143.23 27.8357 144.925 27.8357C146.07 27.8357 146.998 27.6525 147.708 27.2861C148.418 26.9196 149.082 26.3814 149.7 25.6714L150.044 25.9806C149.334 27.2403 148.383 28.2251 147.192 28.9351C146.024 29.645 144.616 30 142.967 30C141.341 30 139.898 29.6565 138.638 28.9694C137.378 28.2594 136.394 27.2517 135.684 25.9463C134.974 24.6408 134.619 23.0834 134.619 21.2741C134.619 19.3961 135.031 17.8044 135.855 16.4989C136.68 15.1706 137.733 14.1629 139.016 13.4758C140.321 12.7887 141.684 12.4452 143.104 12.4452ZM143.001 13.1323C142.337 13.1323 141.764 13.3384 141.283 13.7506C140.825 14.14 140.459 14.85 140.184 15.8806C139.932 16.8883 139.795 18.3197 139.772 20.1748H145.646C145.875 17.6784 145.784 15.8806 145.371 14.7813C144.959 13.6819 144.169 13.1323 143.001 13.1323ZM76.7858 29.1412V29.4847H84.859V29.1412L84.5498 29.0381C83.7482 28.8091 83.3474 28.248 83.3474 27.3548V15.8462C83.92 15.3424 84.4697 14.9645 84.9964 14.7125C85.5232 14.4377 86.0499 14.3003 86.5767 14.3003C87.3783 14.3003 87.9394 14.495 88.26 14.8843C88.6036 15.2737 88.7754 15.9264 88.7754 16.8425V27.3204C88.7754 27.7785 88.6837 28.1449 88.5005 28.4198C88.3402 28.6717 88.0425 28.8664 87.6073 29.0038L87.1264 29.1412V29.4847H95.0965V29.1412L94.7873 29.0381C93.9857 28.8091 93.5735 28.248 93.5506 27.3548V18.4571C93.5506 17.9762 93.5276 17.5181 93.4818 17.083C93.4589 16.6478 93.3902 16.247 93.2757 15.8806C93.8941 15.3538 94.4781 14.9645 95.0278 14.7125C95.6003 14.4377 96.1843 14.3003 96.7798 14.3003C97.5356 14.3003 98.0853 14.4835 98.4288 14.85C98.7723 15.1935 98.9441 15.8462 98.9441 16.8081V26.4C98.9441 29.499 101.44 29.4933 104.843 29.4855H104.843H104.844L105.141 29.4849L105.368 29.4847H106.78H112.2C112.886 29.4847 113.135 28.6946 113.135 28.6946C113.8 29.1068 114.555 29.4275 115.403 29.6565C116.273 29.8855 117.132 30 117.979 30C119.285 30 120.476 29.6679 121.552 29.0038C122.652 28.3396 123.522 27.3548 124.163 26.0493C124.827 24.721 125.159 23.0605 125.159 21.068C125.159 19.0755 124.862 17.4494 124.266 16.1898C123.694 14.9072 122.903 13.9682 121.896 13.3727C120.888 12.7544 119.731 12.4452 118.426 12.4452C117.51 12.4452 116.605 12.5826 115.712 12.8574C114.819 13.1094 113.994 13.4987 113.239 14.0255V10.5557L113.376 5.71182L112.964 5.40264L106.849 6.87986V7.2234L107.33 7.36081C107.788 7.45242 108.085 7.62419 108.223 7.87612C108.383 8.12805 108.463 8.49449 108.463 8.97545V26.7548C108.463 27.6938 108.017 28.2664 107.124 28.4725L106.78 28.5412C106.239 28.6343 105.932 28.6402 105.368 28.5412L104.99 28.4381C104.166 28.2091 103.754 27.648 103.754 26.7548V17.2891C103.754 15.6172 103.364 14.3919 102.586 13.6132C101.83 12.8345 100.639 12.4452 99.0128 12.4452C98.028 12.4452 97.0088 12.6971 95.9553 13.201C94.9247 13.6819 93.9628 14.3461 93.0696 15.1935C92.7261 14.2545 92.2222 13.5674 91.558 13.1323C90.8938 12.6742 90.0121 12.4452 88.9128 12.4452C87.8592 12.4452 86.8401 12.7086 85.8553 13.2353C84.8934 13.7621 84.0345 14.4034 83.2787 15.1591L83.0039 12.8231L82.6604 12.4795L76.7858 14.4721V14.8156L77.3011 14.953C77.7592 15.0446 78.0684 15.2164 78.2287 15.4683C78.389 15.6974 78.4692 16.0638 78.4692 16.5677V27.3204C78.4463 27.7785 78.3432 28.1449 78.16 28.4198C77.9997 28.6946 77.7019 28.8893 77.2668 29.0038L76.7858 29.1412ZM116.262 28.832C116.995 28.832 117.636 28.603 118.186 28.1449C118.735 27.6869 119.17 26.9082 119.491 25.8089C119.812 24.6866 119.972 23.1522 119.972 21.2054C119.972 19.2587 119.823 17.7586 119.525 16.7051C119.228 15.6516 118.804 14.9187 118.254 14.5064C117.727 14.0942 117.086 13.8881 116.33 13.8881C115.254 13.8881 114.258 14.1858 113.342 14.7813V27.9732C113.777 28.248 114.223 28.4656 114.681 28.6259C115.139 28.7633 115.666 28.832 116.262 28.832ZM30.4271 17.8466C30.4271 19.1062 30.8279 20.1712 31.6295 21.0415C32.0166 21.4618 32.4732 21.8287 32.9993 22.1422C32.4145 22.4431 31.8951 22.757 31.4035 23.0684C29.1254 24.5112 29.1823 26.7736 30.221 27.9123C31.1253 28.9037 32.0024 29.2104 32.7006 29.4546C32.8042 29.4908 32.904 29.5257 32.9993 29.5613C33.8925 29.8361 34.9389 29.9735 36.0611 29.9735C38.443 29.9735 40.2867 29.4696 41.5921 28.4619C42.9205 27.4542 43.5847 26.1144 43.5847 24.4425C43.5847 23.2058 43.2297 22.1523 42.5197 21.282C42.4963 21.2525 42.4723 21.2233 42.4479 21.1942C43.0798 21.1291 43.7232 21.093 44.3721 21.093C45.1237 21.093 45.8534 21.0622 46.5585 21.0045L46.5922 21.0415C47.3938 21.9118 48.4931 22.5531 49.8902 22.9653L51.3331 23.4119C52.6385 23.8012 53.5317 24.2364 54.0127 24.7174C54.4936 25.1983 54.7341 25.8167 54.7341 26.5725C54.7341 27.397 54.3906 28.0611 53.7035 28.565C53.0393 29.0459 52.1576 29.2864 51.0582 29.2864C50.1192 29.2864 49.3405 29.0688 48.7222 28.6337C48.1267 28.1756 47.577 27.4886 47.0732 26.5725L45.9052 24.5112H45.5616L45.5273 28.5993C46.283 28.9887 47.1075 29.3093 48.0007 29.5613C48.8939 29.8361 49.9017 29.9735 51.0239 29.9735C53.4058 29.9735 55.2494 29.4696 56.5549 28.4619C57.8832 27.4542 58.5474 26.1144 58.5474 24.4425C58.5474 23.2058 58.1924 22.1523 57.4824 21.282C56.7724 20.3888 55.9156 19.7933 54.2666 19.2894C55.469 18.7261 55.8789 18.4662 56.5549 17.8466C58.6009 15.9711 57.5005 14.326 57.1131 13.9388L57.1045 13.9302C56.7266 13.5523 55.6044 12.9111 54.8028 12.7278C54.0241 12.5217 53.1882 12.4187 52.295 12.4187C50.0734 12.4187 48.3672 12.9454 47.1762 13.9989C45.9853 15.0525 45.3898 16.335 45.3898 17.8466C45.3898 18.6511 45.5534 19.3763 45.8804 20.022C45.2139 20.0897 44.5106 20.1274 43.7709 20.1274C42.8744 20.1274 42.0448 20.1505 41.2751 20.1938C40.6524 19.7992 39.8877 19.4634 38.9812 19.1864L37.4353 18.7398C36.2902 18.3504 35.4199 17.9267 34.8244 17.4687C34.2518 17.0106 33.9656 16.3923 33.9656 15.6136C33.9656 14.812 34.3091 14.1936 34.9962 13.7585C35.6833 13.3233 36.4161 13.1057 37.1948 13.1057C38.0422 13.1057 38.672 13.2661 39.0843 13.5867C39.5194 13.8844 39.9546 14.4112 40.3897 15.167L41.5921 17.2969H41.9357L42.1418 13.5867C41.4089 13.1973 40.6417 12.9111 39.8401 12.7278C39.0614 12.5217 38.2254 12.4187 37.3322 12.4187C35.1107 12.4187 33.4044 12.9454 32.2135 13.9989C31.0226 15.0525 30.4271 16.335 30.4271 17.8466ZM49.7871 17.4687C50.2488 17.8238 51.2415 18.2885 52.0336 18.6024C53.8798 17.7476 54.3568 17.1691 54.6505 16.8129C54.6798 16.7774 54.7073 16.7441 54.7341 16.7129C55.0299 16.3694 55.2972 16.0258 55.2972 15.167C55.2972 14.336 54.7232 13.9445 54.2918 13.6503L54.249 13.621C53.8367 13.3004 53.005 13.1057 52.1576 13.1057C51.3789 13.1057 50.646 13.3233 49.9589 13.7585C49.2718 14.1936 48.9283 14.812 48.9283 15.6136C48.9283 16.3923 49.2146 17.0106 49.7871 17.4687ZM36.3703 23.4119L35.3971 23.1107C33.9021 23.78 33.2929 24.099 32.6059 24.7861C31.9189 25.4731 31.8467 26.1602 32.2623 26.916C32.678 27.6718 33.1213 28.0497 33.9656 28.4619C34.8098 28.8742 35.752 28.9429 35.752 28.9429C35.752 28.9429 37.7591 29.1896 38.7407 28.565C39.7224 27.9404 39.7714 27.397 39.7714 26.5725C39.7714 25.8167 39.5309 25.1983 39.0499 24.7174C38.569 24.2364 37.6758 23.8012 36.3703 23.4119ZM6.42296 14.8506C6.32126 15.2961 6.14553 15.6876 5.89577 16.0253C5.63999 16.3533 5.3315 16.6241 4.9703 16.8376C4.61089 17.0433 4.22188 17.1806 3.80327 17.2495C3.38644 17.3105 2.96312 17.292 2.53331 17.1939C1.95501 17.0618 1.45695 16.8125 1.03913 16.4457C0.621306 16.079 0.324363 15.633 0.148301 15.1077C-0.0277612 14.5824 -0.0470986 14.0188 0.090289 13.4171C0.22054 12.8466 0.468476 12.3729 0.834098 11.9959C1.1919 11.6172 1.61762 11.3732 2.11124 11.2639L2.18076 12.0937C1.82892 12.1943 1.53135 12.3812 1.28805 12.6546C1.03872 12.9183 0.871237 13.2377 0.785593 13.6129C0.692811 14.0192 0.71356 14.4145 0.847836 14.7987C0.982113 15.1829 1.2097 15.5186 1.53061 15.8056C1.8533 16.0848 2.24909 16.278 2.71798 16.385C3.17905 16.4903 3.62034 16.4842 4.04184 16.3666C4.46334 16.2491 4.82577 16.0482 5.12912 15.7639C5.42466 15.4778 5.61882 15.1316 5.7116 14.7252C5.77226 14.4595 5.78336 14.1948 5.7449 13.9311C5.70822 13.6597 5.63225 13.4162 5.51699 13.2008C5.3957 12.9758 5.24841 12.8106 5.07513 12.7052L5.48889 11.9734C5.75306 12.1488 5.97293 12.3922 6.14849 12.7036C6.31803 13.0055 6.42996 13.3435 6.48431 13.7176C6.53262 14.0822 6.51217 14.4599 6.42296 14.8506ZM21.8443 6.2849C22.124 6.59817 22.468 6.84826 22.8761 7.03519C23.2478 7.20542 23.6206 7.30567 23.9947 7.33593C24.3794 7.36225 24.7421 7.32116 25.0827 7.21268C25.4233 7.10419 25.7137 6.94183 25.9538 6.72558L25.389 6.25527C25.1176 6.50128 24.7709 6.64225 24.3489 6.67819C23.9341 6.71747 23.5409 6.65199 23.1692 6.48175C22.8048 6.31486 22.5077 6.06855 22.2777 5.74282C22.0584 5.41314 21.9222 5.04655 21.8689 4.64305C21.8263 4.2356 21.8802 3.81946 22.0307 3.39465L26.9063 5.62773C26.9269 5.60191 26.949 5.5635 26.9723 5.51249L27.0524 5.33758C27.2928 4.81285 27.3928 4.27677 27.3526 3.72935C27.3157 3.17464 27.1477 2.66566 26.8485 2.20241C26.5566 1.74249 26.13 1.38403 25.5689 1.12701C25.0223 0.876661 24.4722 0.787846 23.9187 0.860559C23.3686 0.925985 22.8678 1.12423 22.4164 1.4553C21.9723 1.78971 21.6284 2.22292 21.3847 2.75494C21.1978 3.16306 21.0918 3.57738 21.0667 3.99791C21.0489 4.42177 21.1041 4.83059 21.2324 5.22435C21.3639 5.61083 21.5679 5.96435 21.8443 6.2849ZM26.4629 4.77664L22.2542 2.84898C22.4703 2.45421 22.7448 2.14353 23.0778 1.91694C23.4215 1.6864 23.7864 1.55377 24.1726 1.51905C24.5621 1.47705 24.9427 1.54116 25.3144 1.7114C25.6861 1.88163 25.9833 2.12795 26.2059 2.45033C26.4392 2.76877 26.5788 3.12808 26.6247 3.52824C26.678 3.93174 26.6241 4.34788 26.4629 4.77664Z" fill="black"/>
</svg>
