<svg width="251" height="50" viewBox="0 0 251 50" fill="none" xmlns="http://www.w3.org/2000/svg">
<path fill-rule="evenodd" clip-rule="evenodd" d="M33.2272 9.78306L31.8964 10.0763L30.6416 4.3813C30.38 3.19403 29.9982 2.36157 29.4962 1.88392C28.9942 1.40627 28.3714 1.24937 27.6278 1.41323C26.858 1.58284 26.2269 2.00918 25.7344 2.69226C25.255 3.37247 24.9862 4.17042 24.928 5.08614L26.2992 11.3095L24.9685 11.6027L23.7137 5.90776C23.4492 4.70744 23.0739 3.87354 22.5879 3.40606C22.099 2.92554 21.4761 2.76864 20.7194 2.93537C19.9627 3.1021 19.3367 3.52049 18.8413 4.19052C18.346 4.86055 18.0707 5.65995 18.0154 6.58871L19.3909 12.8317L18.0601 13.1249L15.8136 2.92872L17.0269 2.66137L17.5357 4.97067C17.7909 4.07995 18.2038 3.34601 18.7743 2.76885C19.3579 2.18882 20.0607 1.80825 20.8826 1.62715C21.7307 1.44029 22.4688 1.53074 23.0971 1.89849C23.7253 2.26624 24.1844 2.82858 24.4743 3.58552C24.7542 2.62094 25.1715 1.84498 25.7261 1.25765C26.2938 0.667449 26.9951 0.280358 27.8301 0.0963786C28.4042 -0.0301072 28.9099 -0.0320943 29.3473 0.0904162C29.7977 0.210051 30.1835 0.4397 30.5046 0.779364C30.8359 1.1031 31.114 1.52746 31.3391 2.05243C31.5744 2.56149 31.7654 3.14871 31.912 3.8141L33.2272 9.78306ZM13.1455 18.0563C13.7775 17.7555 14.3385 17.3224 14.8285 16.757C15.3273 16.1816 15.6763 15.5648 15.8755 14.9065C16.0734 14.2294 16.1344 13.5574 16.0583 12.8904C15.981 12.2045 15.7831 11.5557 15.4648 10.9439C15.1363 10.3233 14.6996 9.77674 14.1544 9.30423C13.589 8.81422 12.9809 8.45512 12.3301 8.22693C11.6692 7.98998 10.9988 7.88631 10.319 7.9159C9.62913 7.93673 8.97255 8.09252 8.34929 8.38326C7.71593 8.66525 7.15425 9.08892 6.66424 9.65427C6.17423 10.2196 5.83027 10.8408 5.63237 11.5179C5.43311 12.1762 5.37218 12.8482 5.44955 13.5341C5.51683 14.2112 5.71469 14.86 6.04312 15.4806C6.36145 16.0924 6.80329 16.6433 7.36864 17.1333C7.9138 17.6058 8.51685 17.9606 9.17779 18.1975C9.82863 18.4257 10.4946 18.5344 11.1758 18.5237C11.8555 18.4941 12.5121 18.3383 13.1455 18.0563ZM10.2228 17.1143C9.51941 16.9466 8.87497 16.6091 8.28943 16.1016C7.69379 15.5853 7.27248 14.9903 7.02549 14.3166C6.76841 13.6341 6.67723 12.9539 6.75197 12.2762C6.83546 11.5883 7.1047 10.9819 7.55971 10.4569C8.01472 9.93196 8.57169 9.57492 9.23062 9.38582C9.88956 9.19671 10.5751 9.18092 11.2872 9.33844C11.9992 9.49597 12.6481 9.82848 13.2336 10.336C13.8091 10.8348 14.2304 11.4298 14.4975 12.121C14.7546 12.8035 14.8364 13.4843 14.7428 14.1634C14.6492 14.8425 14.3749 15.4446 13.9199 15.9695C13.4649 16.4945 12.913 16.8559 12.2641 17.0538C11.6052 17.2429 10.9247 17.263 10.2228 17.1143ZM209.497 48.5686V49.1412H223.181V48.5686L222.437 48.3968C221.712 48.1678 221.196 47.8242 220.891 47.3662C220.586 46.87 220.433 46.2402 220.433 45.4767C220.433 44.1026 220.414 42.7284 220.376 41.3543V37.1173V17.5356L220.605 9.51965L219.918 9.00434L209.44 11.4664V12.0389L210.184 12.2107C210.947 12.4016 211.482 12.7069 211.787 13.1268C212.093 13.5085 212.245 14.0811 212.245 14.8445V45.4767C212.245 46.9272 211.558 47.8815 210.184 48.3396L209.497 48.5686ZM27.2332 50C25.0193 50 23.1489 49.3702 21.622 48.1105C20.1334 46.8509 19.389 45.0378 19.389 42.6712C19.389 40.8771 20.3051 39.2358 22.1374 37.7471C23.9696 36.2203 26.8515 35.0751 30.7831 34.3117C31.3938 34.1972 32.0809 34.0827 32.8443 33.9682C33.6077 33.8155 34.4093 33.6628 35.2491 33.5101V28.9869C35.2491 26.3912 34.9246 24.5781 34.2757 23.5475C33.665 22.4787 32.6916 21.9443 31.3556 21.9443C30.4395 21.9443 29.7143 22.2497 29.1799 22.8604C28.6455 23.433 28.302 24.4445 28.1493 25.895L28.0348 26.5248C27.9584 28.1662 27.5576 29.3686 26.8324 30.132C26.1071 30.8954 25.2101 31.2771 24.1413 31.2771C23.1489 31.2771 22.3282 30.9718 21.6793 30.361C21.0304 29.7503 20.7059 28.9296 20.7059 27.899C20.7059 26.334 21.2403 25.0171 22.3091 23.9483C23.4161 22.8795 24.8666 22.0779 26.6606 21.5435C28.4547 21.0091 30.4014 20.7419 32.5008 20.7419C35.898 20.7419 38.5127 21.5817 40.3449 23.2612C42.2153 24.9026 43.1505 27.5936 43.1505 31.3344V43.9881C43.1505 45.7058 43.9521 46.5646 45.5553 46.5646H46.8149L47.3302 47.0227C46.605 47.9388 45.8034 48.6449 44.9254 49.1412C44.0857 49.6374 42.8833 49.8855 41.3183 49.8855C39.6388 49.8855 38.3028 49.5038 37.3103 48.7404C36.356 47.9388 35.7262 46.8891 35.4209 45.5912C34.2757 46.8127 33.0924 47.8624 31.871 48.7404C30.6877 49.5801 29.1417 50 27.2332 50ZM30.7258 46.5073C31.4892 46.5073 32.1954 46.3356 32.8443 45.992C33.5314 45.6103 34.333 45.0378 35.2491 44.2743V34.6553L34.104 34.8843C33.7223 34.9606 33.2833 35.037 32.7871 35.1133C31.0312 35.5714 29.6189 36.3539 28.5501 37.4608C27.5195 38.5296 27.0042 39.9801 27.0042 41.8123C27.0042 43.3773 27.3668 44.5606 28.092 45.3622C28.8173 46.1256 29.6952 46.5073 30.7258 46.5073ZM113.901 20.7419C116.382 20.7419 118.5 21.2572 120.256 22.2879C122.012 23.2803 123.348 24.6545 124.264 26.4103C125.218 28.128 125.696 30.0938 125.696 32.3077C125.696 32.7276 125.676 33.1666 125.638 33.6246C125.6 34.0445 125.524 34.4262 125.409 34.7698H108.347C108.385 38.8922 109.11 41.8696 110.523 43.7018C111.973 45.4958 114.111 46.3928 116.935 46.3928C118.844 46.3928 120.39 46.0875 121.573 45.4767C122.756 44.866 123.863 43.969 124.894 42.7857L125.467 43.301C124.283 45.4004 122.699 47.0417 120.714 48.225C118.768 49.4083 116.42 50 113.672 50C110.962 50 108.557 49.4274 106.457 48.2823C104.358 47.099 102.717 45.4195 101.533 43.2437C100.35 41.068 99.7584 38.4724 99.7584 35.4568C99.7584 32.3268 100.445 29.6739 101.82 27.4982C103.194 25.2843 104.95 23.6048 107.087 22.4596C109.263 21.3145 111.534 20.7419 113.901 20.7419ZM113.729 21.8871C112.622 21.8871 111.668 22.2306 110.866 22.9177C110.103 23.5666 109.492 24.7499 109.034 26.4676C108.614 28.1471 108.385 30.5328 108.347 33.6246H118.138C118.519 29.464 118.367 26.4676 117.68 24.6354C116.993 22.8032 115.676 21.8871 113.729 21.8871ZM238.507 20.7419C240.988 20.7419 243.107 21.2572 244.862 22.2879C246.618 23.2803 247.954 24.6545 248.87 26.4103C249.825 28.128 250.302 30.0938 250.302 32.3077C250.302 32.7276 250.283 33.1666 250.245 33.6246C250.206 34.0445 250.13 34.4262 250.016 34.7698H232.953C232.991 38.8922 233.716 41.8696 235.129 43.7018C236.579 45.4958 238.717 46.3928 241.542 46.3928C243.45 46.3928 244.996 46.0875 246.179 45.4767C247.363 44.866 248.47 43.969 249.5 42.7857L250.073 43.301C248.889 45.4004 247.305 47.0417 245.32 48.225C243.374 49.4083 241.026 50 238.278 50C235.568 50 233.163 49.4274 231.064 48.2823C228.964 47.099 227.323 45.4195 226.14 43.2437C224.956 41.068 224.365 38.4724 224.365 35.4568C224.365 32.3268 225.052 29.6739 226.426 27.4982C227.8 25.2843 229.556 23.6048 231.693 22.4596C233.869 21.3145 236.14 20.7419 238.507 20.7419ZM238.335 21.8871C237.228 21.8871 236.274 22.2306 235.472 22.9177C234.709 23.5666 234.098 24.7499 233.64 26.4676C233.22 28.1471 232.991 30.5328 232.953 33.6246H242.744C243.126 29.464 242.973 26.4676 242.286 24.6354C241.599 22.8032 240.282 21.8871 238.335 21.8871ZM127.976 48.5686V49.1412H141.432V48.5686L140.916 48.3968C139.58 48.0151 138.912 47.0799 138.912 45.5912V26.4103C139.867 25.5706 140.783 24.9407 141.661 24.5209C142.539 24.0628 143.417 23.8338 144.295 23.8338C145.631 23.8338 146.566 24.1582 147.1 24.8071C147.673 25.456 147.959 26.5439 147.959 28.0708V45.534C147.959 46.2974 147.806 46.9081 147.501 47.3662C147.234 47.7861 146.738 48.1105 146.012 48.3396L145.211 48.5686V49.1412H158.494V48.5686L157.979 48.3968C156.643 48.0151 155.956 47.0799 155.918 45.5912V30.7618C155.918 29.9602 155.879 29.1968 155.803 28.4716C155.765 27.7463 155.65 27.0783 155.46 26.4676C156.49 25.5896 157.464 24.9407 158.38 24.5209C159.334 24.0628 160.307 23.8338 161.3 23.8338C162.559 23.8338 163.475 24.1391 164.048 24.7499C164.621 25.3224 164.907 26.4103 164.907 28.0135V43.9999C164.907 49.165 169.067 49.1555 174.738 49.1425L175.238 49.1415C175.363 49.1413 175.488 49.1412 175.614 49.1412H177.967H187C188.143 49.1412 188.559 47.8242 188.559 47.8242C189.666 48.5113 190.926 49.0457 192.338 49.4274C193.789 49.8091 195.22 50 196.632 50C198.808 50 200.793 49.4465 202.587 48.3396C204.419 47.2326 205.87 45.5912 206.939 43.4155C208.045 41.2016 208.599 38.4342 208.599 35.1133C208.599 31.7924 208.103 29.0823 207.11 26.9829C206.156 24.8453 204.839 23.2803 203.16 22.2879C201.48 21.2572 199.552 20.7419 197.377 20.7419C195.85 20.7419 194.342 20.971 192.853 21.429C191.365 21.8489 189.991 22.4978 188.731 23.3757V17.5928L188.96 9.51965L188.273 9.00434L178.081 11.4664V12.0389L178.883 12.268C179.646 12.4206 180.142 12.7069 180.372 13.1268C180.639 13.5467 180.772 14.1574 180.772 14.959V44.5912C180.772 46.1563 180.028 47.1105 178.539 47.4541L177.967 47.5686C177.065 47.7238 176.554 47.7336 175.614 47.5686L174.984 47.3968C173.61 47.0151 172.923 46.0799 172.923 44.5912V28.8151C172.923 26.0286 172.274 23.9865 170.976 22.6886C169.716 21.3908 167.732 20.7419 165.021 20.7419C163.38 20.7419 161.681 21.1618 159.926 22.0016C158.208 22.8032 156.605 23.9101 155.116 25.3224C154.543 23.7574 153.704 22.6123 152.597 21.8871C151.49 21.1236 150.02 20.7419 148.188 20.7419C146.432 20.7419 144.734 21.1809 143.092 22.0588C141.489 22.9368 140.058 24.0055 138.798 25.2652L138.34 21.3717L137.767 20.7992L127.976 24.1201V24.6926L128.835 24.9217C129.599 25.0743 130.114 25.3606 130.381 25.7805C130.648 26.1622 130.782 26.7729 130.782 27.6127V45.534C130.744 46.2974 130.572 46.9081 130.267 47.3662C130 47.8242 129.503 48.1487 128.778 48.3396L127.976 48.5686ZM193.77 48.0533C194.991 48.0533 196.06 47.6716 196.976 46.9081C197.892 46.1447 198.617 44.8469 199.152 43.0147C199.686 41.1443 199.953 38.5869 199.953 35.3423C199.953 32.0978 199.705 29.5976 199.209 27.8417C198.713 26.0859 198.007 24.8644 197.09 24.1773C196.212 23.4902 195.144 23.1467 193.884 23.1467C192.09 23.1467 190.43 23.6429 188.903 24.6354V46.6219C189.628 47.0799 190.372 47.4425 191.136 47.7097C191.899 47.9388 192.777 48.0533 193.77 48.0533ZM50.7119 29.7442C50.7119 31.8436 51.3799 33.6186 52.7159 35.0691C53.3611 35.7696 54.1221 36.3811 54.9989 36.9036C54.0242 37.4051 53.1586 37.9283 52.3392 38.4472C48.5423 40.852 48.6373 44.6227 50.3684 46.5204C51.8756 48.1727 53.3374 48.684 54.501 49.0909C54.6738 49.1513 54.84 49.2095 54.9989 49.2687C56.4875 49.7267 58.2316 49.9558 60.102 49.9558C64.0717 49.9558 67.1445 49.116 69.3203 47.4365C71.5342 45.757 72.6411 43.524 72.6411 40.7375C72.6411 38.6762 72.0495 36.9204 70.8662 35.4699C70.8272 35.4208 70.7873 35.372 70.7466 35.3237C71.7998 35.215 72.8721 35.155 73.9535 35.155C75.2062 35.155 76.4223 35.1037 77.5976 35.0075C77.6162 35.0281 77.6349 35.0486 77.6538 35.0691C78.9897 36.5196 80.822 37.5884 83.1504 38.2754L85.5552 39.0198C87.7309 39.6687 89.2196 40.3939 90.0212 41.1955C90.8228 41.9971 91.2236 43.0277 91.2236 44.2874C91.2236 45.6615 90.651 46.7685 89.5059 47.6083C88.3989 48.4098 86.9293 48.8106 85.0971 48.8106C83.5321 48.8106 82.2343 48.448 81.2037 47.7228C80.2112 46.9593 79.2951 45.8142 78.4554 44.2874L76.5086 40.852H75.9361L75.8788 47.6655C77.1385 48.3144 78.5126 48.8488 80.0013 49.2687C81.49 49.7267 83.1695 49.9558 85.0399 49.9558C89.0096 49.9558 92.0824 49.116 94.2581 47.4365C96.4721 45.757 97.579 43.524 97.579 40.7375C97.579 38.6762 96.9874 36.9204 95.8041 35.4699C94.6208 33.9812 93.1926 32.9888 90.4443 32.149C92.4483 31.2101 93.1315 30.7769 94.2581 29.7442C97.6682 26.6185 95.8343 23.8766 95.1885 23.2312L95.1743 23.217C94.5444 22.5872 92.6741 21.5184 91.3381 21.213C90.0403 20.8695 88.647 20.6977 87.1583 20.6977C83.4557 20.6977 80.612 21.5756 78.6271 23.3315C76.6422 25.0874 75.6498 27.2249 75.6498 29.7442C75.6498 31.0852 75.9223 32.2938 76.4674 33.37C75.3565 33.4828 74.1844 33.5456 72.9516 33.5456C71.4573 33.5456 70.0747 33.5842 68.7919 33.6563C67.754 32.9986 66.4796 32.4389 64.9688 31.9772L62.3922 31.2329C60.4837 30.584 59.0332 29.8778 58.0407 29.1144C57.0864 28.351 56.6093 27.3204 56.6093 26.0226C56.6093 24.6866 57.1819 23.656 58.327 22.9307C59.4721 22.2055 60.6936 21.8428 61.9914 21.8428C63.4037 21.8428 64.4534 22.11 65.1405 22.6444C65.8658 23.1406 66.591 24.0186 67.3163 25.2782L69.3203 28.8281H69.8928L70.2364 22.6444C69.0149 21.9955 67.7362 21.5184 66.4002 21.213C65.1024 20.8695 63.7091 20.6977 62.2204 20.6977C58.5179 20.6977 55.6741 21.5756 53.6892 23.3315C51.7043 25.0874 50.7119 27.2249 50.7119 29.7442ZM82.9786 29.1144C83.7481 29.7063 85.4026 30.4808 86.7227 31.0039C89.7998 29.5792 90.5947 28.6152 91.0842 28.0215C91.133 27.9623 91.1788 27.9067 91.2236 27.8548C91.7165 27.2822 92.162 26.7096 92.162 25.2782C92.162 23.8932 91.2054 23.2408 90.4864 22.7504L90.415 22.7017C89.7279 22.1673 88.3416 21.8428 86.9293 21.8428C85.6315 21.8428 84.41 22.2055 83.2649 22.9307C82.1198 23.656 81.5472 24.6866 81.5472 26.0226C81.5472 27.3204 82.0243 28.351 82.9786 29.1144ZM60.6173 39.0198L58.9952 38.5177C56.5036 39.6333 55.4881 40.1649 54.3432 41.31C53.1982 42.4552 53.0778 43.6003 53.7706 44.8599C54.4634 46.1196 55.2022 46.7494 56.6093 47.4365C58.0164 48.1236 59.5866 48.2381 59.5866 48.2381C59.5866 48.2381 62.9319 48.6493 64.568 47.6083C66.2041 46.5673 66.2857 45.6615 66.2857 44.2874C66.2857 43.0277 65.8849 41.9971 65.0833 41.1955C64.2817 40.3939 62.793 39.6687 60.6173 39.0198ZM10.705 24.751C10.5355 25.4934 10.2426 26.146 9.82635 26.7087C9.40005 27.2554 8.88589 27.7067 8.2839 28.0626C7.68488 28.4055 7.03653 28.6343 6.33884 28.7491C5.64413 28.8508 4.9386 28.8199 4.22224 28.6564C3.25841 28.4363 2.42832 28.0207 1.73194 27.4095C1.03557 26.7983 0.540668 26.0549 0.247232 25.1794C-0.0462051 24.3039 -0.0784342 23.3647 0.150545 22.3618C0.36763 21.411 0.780857 20.6214 1.39023 19.9932C1.98657 19.3619 2.69609 18.9552 3.51879 18.773L3.63467 20.1562C3.04826 20.3238 2.55231 20.6353 2.14681 21.0909C1.73127 21.5305 1.45213 22.0628 1.30938 22.688C1.15475 23.3653 1.18933 24.0241 1.41312 24.6645C1.63692 25.3048 2.01624 25.8642 2.55108 26.3426C3.0889 26.808 3.74854 27.1299 4.53003 27.3083C5.29848 27.4838 6.03396 27.4736 6.73646 27.2777C7.43897 27.0818 8.04301 26.7469 8.5486 26.2731C9.04116 25.7963 9.36476 25.2192 9.5194 24.542C9.6205 24.0991 9.639 23.658 9.57489 23.2185C9.51376 22.766 9.38714 22.3603 9.19504 22.0012C8.9929 21.6262 8.74742 21.3509 8.45862 21.1753L9.14822 19.9556C9.5885 20.2479 9.95495 20.6536 10.2476 21.1727C10.5301 21.6757 10.7167 22.239 10.8072 22.8627C10.8878 23.4703 10.8537 24.0997 10.705 24.751ZM36.4072 10.4748C36.8734 10.9969 37.4466 11.4137 38.1268 11.7253C38.7463 12.009 39.3677 12.1761 39.9912 12.2265C40.6324 12.2704 41.2368 12.2019 41.8045 12.0211C42.3723 11.8403 42.8562 11.5697 43.2564 11.2093L42.315 10.4254C41.8627 10.8354 41.2848 11.0704 40.5814 11.1303C39.8902 11.1957 39.2349 11.0866 38.6154 10.8029C38.0081 10.5247 37.5128 10.1142 37.1296 9.57131C36.7641 9.02185 36.537 8.41087 36.4482 7.73836C36.3772 7.05928 36.4671 6.36572 36.7179 5.65771L44.8439 9.3795C44.8783 9.33647 44.9149 9.27245 44.9539 9.18743L45.0874 8.89591C45.4879 8.02137 45.6547 7.12791 45.5877 6.21553C45.5262 5.29101 45.2461 4.44271 44.7475 3.67063C44.261 2.90411 43.5501 2.30666 42.6148 1.87829C41.7038 1.46105 40.7871 1.31303 39.8646 1.43421C38.9477 1.54326 38.113 1.87367 37.3607 2.42545C36.6205 2.9828 36.0474 3.70482 35.6413 4.59151C35.3297 5.27171 35.153 5.96225 35.1112 6.66313C35.0816 7.36957 35.1736 8.05093 35.3873 8.70721C35.6066 9.35134 35.9466 9.94053 36.4072 10.4748ZM44.1049 7.96101L37.0903 4.74825C37.4505 4.0903 37.908 3.5725 38.4631 3.19485C39.0358 2.81061 39.644 2.58956 40.2877 2.5317C40.9369 2.4617 41.5713 2.56856 42.1907 2.85228C42.8102 3.136 43.3055 3.54652 43.6765 4.08384C44.0653 4.61457 44.298 5.21341 44.3746 5.88035C44.4633 6.55286 44.3734 7.24641 44.1049 7.96101Z" fill="black"/>
</svg>
